<svg xmlns="http://www.w3.org/2000/svg" xmlns:xlink="http://www.w3.org/1999/xlink" width="816" height="1056" viewBox="0 0 612 792"><clipPath id="a"><path transform="matrix(1 0 0 -1 146.164 454.127)" d="M322.799 0H0v322.799h322.799z"/></clipPath><g clip-path="url(#a)"><path d="M358.801 292.728a2.818 2.818 0 1 0-5.636 0 2.818 2.818 0 0 0 5.636 0zm-2.818 0"/><symbol id="b"><path d="M.355.079C.341.066.308.038.308.02c0-.01.01-.02.02-.02.009 0 .014.007.019.013a.226.226 0 0 0 .079.065c.007.004.017.009.017.021 0 .01-.007.015-.014.02a.102.102 0 0 0-.041.057C.386.185.382.198.368.198S.348.185.348.177C.348.172.356.14.372.119H.035C.018.119 0 .119 0 .099s.018-.02.035-.02h.32z"/></symbol><symbol id="c"><path d="M.118.078C.108.039.106.031.027.031.01.031 0 .031 0 .011 0 0 .009 0 .027 0h.357C.542 0 .66.118.66.216c0 .072-.058.13-.155.141.104.019.209.093.209.188 0 .074-.066.138-.186.138H.192c-.019 0-.029 0-.029-.02 0-.011.009-.011.028-.011.002 0 .021 0 .038-.002C.247.648.256.647.256.634L.252.615.118.078m.151.288.062.248C.34.649.342.652.385.652h.129C.602.652.623.593.623.549.623.461.537.366.415.366H.269M.224.031a.11.11 0 0 0-.022.001C.192.033.189.034.189.042c0 .003 0 .005.005.023l.069.279h.189C.548.344.567.27.567.227A.205.205 0 0 0 .36.031H.224z"/></symbol><use xlink:href="#b" transform="matrix(9.9626 0 0 -9.9626 365.048 279.417)"/><use xlink:href="#c" transform="matrix(9.9626 0 0 -9.9626 362.052 287.077)"/><path d="M407.221 163.608a2.818 2.818 0 1 0-5.636 0 2.818 2.818 0 0 0 5.636 0zm-2.818 0"/><symbol id="d"><path d="M.144.115C.104.048.065.034.021.031.009.03 0 .03 0 .011 0 .005.005 0 .013 0l.086.003.1-.003c.006 0 .019 0 .019.019C.218.03.209.031.202.031.179.033.155.041.155.066c0 .012.006.023.014.037l.076.128h.251L.512.064C.512.034.46.031.44.031c-.014 0-.024 0-.024-.02C.416 0 .428 0 .43 0l.125.003L.668 0c.006 0 .018 0 .018.02 0 .011-.01.011-.023.011-.062 0-.062.007-.065.036L.537.692C.535.712.535.716.518.716.502.716.498.709.492.699L.144.115m.12.147.197.33.032-.33H.264z"/></symbol><use xlink:href="#b" transform="matrix(9.9626 0 0 -9.9626 394.95 150.3)"/><use xlink:href="#d" transform="matrix(9.9626 0 0 -9.9626 391.623 157.959)"/><path stroke-width=".399" stroke-dasharray=".3985,1.99255" stroke-miterlimit="10" fill="none" stroke="#000" d="M355.983 292.728c0-26.742-21.678-48.42-48.42-48.42-26.741 0-48.42 21.678-48.42 48.42 0 26.741 21.679 48.42 48.42 48.42 26.742 0 48.42-21.679 48.42-48.42zm-48.42 0"/><path stroke-width=".399" stroke-miterlimit="10" fill="none" stroke="#000" d="M404.403 163.608 381.27 225.3"/><path d="m380.392 227.637 2.514-2.872-1.672.627-.848-1.572z"/><path stroke-width=".39898005000000003" stroke-miterlimit="10" fill="none" stroke="#000" d="m380.392 227.637 2.514-2.872-1.672.627-.848-1.572z"/><symbol id="e"><path d="M.439.383c0 .054-.026.07-.044.07C.37.453.346.427.346.405c0-.013.005-.019.016-.03A.107.107 0 0 0 .396.293C.396.251.335.022.218.022.167.022.144.057.144.109c0 .056.027.129.058.212a.123.123 0 0 1 .012.05.08.08 0 0 1-.082.082C.038.453 0 .308 0 .299c0-.01.01-.01.012-.01.01 0 .011.002.016.018C.057.408.1.431.129.431c.008 0 .025 0 .025-.032a.206.206 0 0 0-.017-.07A.61.61 0 0 1 .08.124C.08.016.168 0 .214 0c.168 0 .225.331.225.383z"/></symbol><use xlink:href="#e" transform="scale(9.96206 -9.96206) rotate(69.444 33.745 18.242)"/><path stroke-width=".399" stroke-miterlimit="10" fill="none" stroke="#000" d="M355.983 292.728v-45.356"/><path d="m355.983 244.875-1.345 3.571 1.345-1.174 1.346 1.174z"/><path stroke-width=".399" stroke-miterlimit="10" fill="none" stroke="#000" d="m355.983 244.875-1.345 3.571 1.345-1.174 1.346 1.174z"/><symbol id="f"><path d="M.593.383c0 .045-.018.07-.04.07C.527.453.5.429.5.406c0-.01.005-.021.015-.03A.109.109 0 0 0 .55.292.284.284 0 0 0 .5.149C.47.106.433.072.386.072c-.057 0-.088.036-.097.09C.3.188.323.252.323.28c0 .012-.005.022-.018.022C.297.302.286.3.278.285A.367.367 0 0 1 .255.164C.222.117.182.072.119.072.053.072.032.131.032.187c0 .125.102.23.102.243a.018.018 0 0 1-.019.019C.102.449.095.436.089.427A.56.56 0 0 1 0 .143C0 .074.023 0 .105 0c.071 0 .118.05.154.105C.268.047.307 0 .369 0c.078 0 .126.061.162.136a.822.822 0 0 1 .062.247z"/></symbol><symbol id="g"><path d="M.334.636C.34.66.343.67.362.673l.061.001c.071 0 .182 0 .182-.099A.228.228 0 0 0 .55.433C.524.407.471.375.381.375H.269l.065.261M.478.362c.101.022.22.092.22.193 0 .086-.09.15-.221.15H.192c-.02 0-.029 0-.029-.02 0-.011.009-.011.028-.011.002 0 .021 0 .038-.002C.247.67.256.669.256.656L.252.637.118.1C.108.061.106.053.027.053.009.053 0 .053 0 .033 0 .022.012.022.014.022L.14.025.267.022c.008 0 .02 0 .02.02 0 .011-.009.011-.028.011-.037 0-.065 0-.065.018 0 .006.002.011.003.017l.066.265h.119C.473.353.491.297.491.262A.382.382 0 0 0 .477.193.46.46 0 0 1 .461.108C.461 0 .581 0 .594 0c.085 0 .12.101.12.115 0 .012-.011.012-.012.012C.693.127.691.12.689.113.664.039.621.022.598.022c-.033 0-.04.022-.04.061 0 .031.006.082.01.114a.373.373 0 0 1 .004.047c0 .077-.067.108-.094.118z"/></symbol><use xlink:href="#f" transform="matrix(0 -9.9626 -9.9626 0 352.57 275.502)"/><use xlink:href="#g" transform="matrix(0 -9.9626 -9.9626 0 352.68 268.647)"/><path stroke-width=".399" stroke-dasharray=".3985,1.99255" stroke-miterlimit="10" fill="none" stroke="#000" d="m341.796 258.495-34.233 34.233"/><use xlink:href="#g" transform="scale(9.9625 -9.9625) rotate(45 49.461 24.928)"/></g><path stroke-width=".199" stroke-miterlimit="10" fill="none" stroke="#929292" d="M151.544 294.145v-2.835m5.38 2.835v-2.835m5.38 2.835v-2.835m5.38 2.835v-2.835m5.38 2.835v-2.835m10.76 2.835v-2.835m5.38 2.835v-2.835m5.38 2.835v-2.835m5.38 2.835v-2.835m5.38 2.835v-2.835m10.76 2.835v-2.835m5.38 2.835v-2.835m5.38 2.835v-2.835m5.38 2.835v-2.835m5.38 2.835v-2.835m10.76 2.835v-2.835m5.38 2.835v-2.835m5.38 2.835v-2.835m5.38 2.835v-2.835m5.38 2.835v-2.835m10.76 2.835v-2.835m5.38 2.835v-2.835m5.38 2.835v-2.835m5.38 2.835v-2.835m5.38 2.835v-2.835m10.76 2.835v-2.835m5.38 2.835v-2.835m5.38 2.835v-2.835m5.38 2.835v-2.835m5.38 2.835v-2.835m10.76 2.835v-2.835m5.38 2.835v-2.835m5.38 2.835v-2.835m5.38 2.835v-2.835m5.38 2.835v-2.835m10.76 2.835v-2.835m5.38 2.835v-2.835m5.38 2.835v-2.835m5.38 2.835v-2.835m5.379 2.835v-2.835m10.76 2.835v-2.835m5.38 2.835v-2.835m5.38 2.835v-2.835m5.38 2.835v-2.835m5.38 2.835v-2.835m10.76 2.835v-2.835m5.38 2.835v-2.835m5.38 2.835v-2.835m5.38 2.835v-2.835m5.38 2.835v-2.835M146.164 294.854v-4.252m32.28 4.252v-4.252m32.28 4.252v-4.252m32.28 4.252v-4.252m32.28 4.252v-4.252m64.56 4.252v-4.252m32.28 4.252v-4.252m32.279 4.252v-4.252m32.28 4.252v-4.252m32.28 4.252v-4.252M306.146 448.747h2.835m-2.835-5.38h2.835m-2.835-5.38h2.835m-2.835-5.38h2.835m-2.835-5.38h2.835m-2.835-10.76h2.835m-2.835-5.38h2.835m-2.835-5.38h2.835m-2.835-5.38h2.835m-2.835-5.38h2.835m-2.835-10.76h2.835m-2.835-5.38h2.835m-2.835-5.38h2.835m-2.835-5.38h2.835m-2.835-5.38h2.835m-2.835-10.76h2.835m-2.835-5.38h2.835m-2.835-5.38h2.835m-2.835-5.38h2.835m-2.835-5.38h2.835m-2.835-10.76h2.835m-2.835-5.38h2.835m-2.835-5.38h2.835m-2.835-5.38h2.835m-2.835-5.38h2.835m-2.835-10.76h2.835m-2.835-5.38h2.835m-2.835-5.38h2.835m-2.835-5.38h2.835m-2.835-5.38h2.835m-2.835-10.76h2.835m-2.835-5.38h2.835m-2.835-5.38h2.835m-2.835-5.38h2.835m-2.835-5.38h2.835m-2.835-10.76h2.835m-2.835-5.38h2.835m-2.835-5.38h2.835m-2.835-5.38h2.835m-2.835-5.379h2.835m-2.835-10.76h2.835m-2.835-5.38h2.835m-2.835-5.38h2.835m-2.835-5.38h2.835m-2.835-5.38h2.835m-2.835-10.76h2.835m-2.835-5.38h2.835m-2.835-5.38h2.835m-2.835-5.38h2.835m-2.835-5.38h2.835M305.437 454.127h4.252m-4.252-32.28h4.252m-4.252-32.28h4.252m-4.252-32.28h4.252m-4.252-32.28h4.252m-4.252-64.56h4.252m-4.252-32.28h4.252m-4.252-32.28h4.252m-4.252-32.279h4.252m-4.252-32.28h4.252"/><path stroke-width=".399" stroke-miterlimit="10" fill="none" stroke="#000" d="M146.164 292.728H466.97"/><path d="m468.963 292.728-3.188-1.594 1.195 1.594-1.195 1.594"/><path stroke-width=".399" stroke-miterlimit="10" fill="none" stroke="#000" d="M307.563 454.127V133.321"/><path d="m307.563 131.328-1.594 3.188 1.594-1.195 1.594 1.195"/><symbol id="h"><path d="M.576 0c.017 0 .035 0 .035.02S.593.04.576.04H.035C.018.04 0 .04 0 .02S.018 0 .035 0h.541z"/></symbol><use xlink:href="#h" transform="matrix(9.9626 0 0 -9.9626 140.626 302.505)"/><symbol id="i"><path d="M.399.223c0 .119-.082.219-.19.219A.176.176 0 0 1 .082.391v.195A.317.317 0 0 1 .167.573C.29.573.36.664.36.677.36.683.357.688.35.688c-.001 0-.003 0-.008-.003A.33.33 0 0 0 .073.684L.061.687c-.01 0-.01-.008-.01-.024V.367c0-.018 0-.026.014-.026.007 0 .009.003.013.009.011.016.048.07.129.07C.259.42.284.374.292.356A.308.308 0 0 0 .31.23C.31.195.31.135.286.093A.125.125 0 0 0 .179.028.156.156 0 0 0 .032.14C.035.139.038.138.049.138c.033 0 .05.025.05.049a.048.048 0 0 1-.05.049C.035.236 0 .229 0 .183 0 .097.069 0 .181 0a.22.22 0 0 1 .218.223z"/></symbol><use xlink:href="#i" transform="matrix(9.9626 0 0 -9.9626 148.046 305.015)"/><use xlink:href="#h" transform="matrix(9.9626 0 0 -9.9626 172.905 302.505)"/><symbol id="j"><path d="M.266.165V.078C.266.042.264.031.19.031H.169V0C.21.003.262.003.304.003.346.003.399.003.44 0v.031H.419C.345.031.343.042.343.078v.087h.1v.031h-.1v.455c0 .02 0 .026-.016.026-.009 0-.012 0-.02-.012L0 .196V.165h.266m.006.031H.028l.244.373V.196z"/></symbol><use xlink:href="#j" transform="matrix(9.9626 0 0 -9.9626 180.106 304.796)"/><use xlink:href="#h" transform="matrix(9.9626 0 0 -9.9626 205.185 302.505)"/><symbol id="k"><path d="M.248.374c.082.027.14.097.14.176C.388.632.3.688.204.688.103.688.027.628.027.552.027.519.049.5.078.5.109.5.129.522.129.551c0 .05-.047.05-.062.05C.098.65.164.663.2.663.241.663.296.641.296.551A.25.25 0 0 0 .268.437C.238.389.204.386.179.385A.554.554 0 0 0 .14.382C.132.381.125.38.125.37c0-.011.007-.011.024-.011h.044C.275.359.312.291.312.193.312.057.243.028.199.028.156.028.081.045.046.104.081.099.112.121.112.159a.054.054 0 0 1-.056.056C.032.215 0 .201 0 .157 0 .066.093 0 .202 0c.122 0 .213.091.213.193 0 .082-.063.16-.167.181z"/></symbol><use xlink:href="#k" transform="matrix(9.9626 0 0 -9.9626 212.524 305.015)"/><use xlink:href="#h" transform="matrix(9.9626 0 0 -9.9626 237.464 302.505)"/><symbol id="l"><path d="M.077.077.183.18c.156.138.216.192.216.292 0 .114-.09.194-.212.194A.185.185 0 0 1 0 .485C0 .429.05.429.053.429c.017 0 .052.012.052.053a.05.05 0 0 1-.053.052L.039.533a.144.144 0 0 0 .135.102C.265.635.308.554.308.472c0-.08-.05-.159-.105-.221L.011.037C0 .026 0 .024 0 0h.371l.028.174H.374C.369.144.362.1.352.085.345.077.279.077.257.077h-.18z"/></symbol><use xlink:href="#l" transform="matrix(9.9626 0 0 -9.9626 244.884 304.796)"/><use xlink:href="#h" transform="matrix(9.9626 0 0 -9.9626 269.744 302.505)"/><symbol id="m"><path d="M.205.64c0 .024 0 .026-.023.026C.12.602.032.602 0 .602V.571a.3.3 0 0 1 .131.026V.079C.131.043.128.031.038.031H.006V0c.035.003.122.003.162.003.04 0 .127 0 .162-.003v.031H.298c-.09 0-.093.011-.093.048V.64z"/></symbol><use xlink:href="#m" transform="matrix(9.9626 0 0 -9.9626 277.552 304.796)"/><use xlink:href="#m" transform="matrix(9.9626 0 0 -9.9626 338.237 304.796)"/><use xlink:href="#l" transform="matrix(9.9626 0 0 -9.9626 370.127 304.796)"/><use xlink:href="#k" transform="matrix(9.9626 0 0 -9.9626 402.327 305.015)"/><use xlink:href="#j" transform="matrix(9.9626 0 0 -9.9626 434.467 304.796)"/><use xlink:href="#i" transform="matrix(9.9626 0 0 -9.9626 466.966 305.015)"/><use xlink:href="#h" transform="matrix(9.9626 0 0 -9.9626 290.012 454.63)"/><use xlink:href="#i" transform="matrix(9.9626 0 0 -9.9626 297.432 457.141)"/><use xlink:href="#h" transform="matrix(9.9626 0 0 -9.9626 290.012 422.352)"/><use xlink:href="#j" transform="matrix(9.9626 0 0 -9.9626 297.213 424.643)"/><use xlink:href="#h" transform="matrix(9.9626 0 0 -9.9626 290.012 390.072)"/><use xlink:href="#k" transform="matrix(9.9626 0 0 -9.9626 297.352 392.582)"/><use xlink:href="#h" transform="matrix(9.9626 0 0 -9.9626 290.012 357.793)"/><use xlink:href="#l" transform="matrix(9.9626 0 0 -9.9626 297.432 360.084)"/><use xlink:href="#h" transform="matrix(9.9626 0 0 -9.9626 290.012 325.513)"/><use xlink:href="#m" transform="matrix(9.9626 0 0 -9.9626 297.82 327.804)"/><use xlink:href="#m" transform="matrix(9.9626 0 0 -9.9626 297.82 263.661)"/><use xlink:href="#l" transform="matrix(9.9626 0 0 -9.9626 297.432 231.381)"/><use xlink:href="#k" transform="matrix(9.9626 0 0 -9.9626 297.352 199.321)"/><use xlink:href="#j" transform="matrix(9.9626 0 0 -9.9626 297.213 166.822)"/><use xlink:href="#i" transform="matrix(9.9626 0 0 -9.9626 297.432 134.762)"/><symbol id="n"><path d="M.305.313c.006.026.029.118.099.118.005 0 .029 0 .05-.013A.058.058 0 0 1 .406.364c0-.016.011-.035.038-.035.022 0 .054.018.054.058 0 .052-.059.066-.093.066C.347.453.312.4.3.377a.11.11 0 0 1-.108.076C.088.453.031.324.031.299c0-.01.01-.01.012-.01.008 0 .011.002.013.011.034.106.1.131.134.131.019 0 .054-.009.054-.067C.244.333.227.266.19.126.174.064.139.022.095.022c-.006 0-.029 0-.05.013C.07.04.092.061.092.089.092.116.07.124.055.124A.057.057 0 0 1 0 .066C0 .02.05 0 .094 0 .16 0 .196.07.199.076A.11.11 0 0 1 .307 0c.103 0 .16.129.16.154 0 .01-.009.01-.012.01C.446.164.444.16.442.153.409.046.341.022.309.022.27.022.254.054.254.088c0 .022.006.044.017.088l.034.137z"/></symbol><use xlink:href="#n" transform="matrix(9.9626 0 0 -9.9626 422.065 287.383)"/><symbol id="o"><path d="M.144.57v.066L0 .625V.594c.071 0 .078-.006.078-.05V.076C.078.031.067.031 0 .031V0l.112.003L.225 0v.031c-.067 0-.078 0-.078.045V.253C.152.237.194.183.27.183c.119 0 .223.098.223.227 0 .127-.097.226-.209.226A.18.18 0 0 1 .144.57M.147.308v.223a.15.15 0 0 0 .129.08C.349.611.41.523.41.41.41.289.34.205.266.205c-.04 0-.078.02-.105.061C.147.287.147.288.147.308z"/></symbol><symbol id="p"><path d="M.443.225c0 .128-.1.234-.221.234C.097.459 0 .35 0 .225 0 .096.104 0 .221 0c.121 0 .222.098.222.225m-.221-.2a.13.13 0 0 0-.114.067C.083.136.083.197.083.233c0 .039 0 .093.024.137a.134.134 0 0 0 .114.067.131.131 0 0 0 .113-.065C.36.329.36.271.36.233c0-.036 0-.09-.022-.134A.129.129 0 0 0 .222.025z"/></symbol><symbol id="q"><path d="M.175.205C.197.201.279.185.279.113.279.062.244.022.166.022c-.084 0-.12.057-.139.142C.024.177.023.181.013.181 0 .181 0 .174 0 .156V.024C0 .007 0 0 .011 0c.005 0 .006.001.025.02.002.002.002.004.02.023A.15.15 0 0 1 .166 0c.115 0 .161.067.161.139 0 .053-.03.083-.042.095C.252.266.213.274.171.282.115.293.048.306.048.364.048.399.074.44.16.44.27.44.275.35.277.319.278.31.287.31.289.31c.013 0 .013.005.013.024v.101c0 .017 0 .024-.011.024-.005 0-.007 0-.02-.012A.129.129 0 0 0 .254.431C.216.459.175.459.16.459.038.459 0 .392 0 .336 0 .301.016.273.043.251.075.225.103.219.175.205z"/></symbol><symbol id="r"><path d="M.144.442.004.431V.4C.069.4.078.394.078.345V.076C.078.031.067.031 0 .031V0l.11.003C.145.003.18.001.214 0v.031c-.066 0-.07.005-.07.044v.367m.004.174a.052.052 0 0 1-.053.053.054.054 0 0 1-.053-.053c0-.027.022-.053.053-.053.028 0 .053.021.053.053z"/></symbol><symbol id="s"><path d="M.154.411h.143v.031H.154v.184H.129C.128.544.098.437 0 .433V.411h.085V.135C.085.012.178 0 .214 0c.071 0 .099.071.099.135v.057H.288V.137C.288.063.258.025.221.025.154.025.154.116.154.133v.278z"/></symbol><symbol id="t"><path d="M.078.344V.076C.078.031.067.031 0 .031V0l.113.003L.225 0v.031c-.067 0-.078 0-.078.045V.26c0 .104.071.16.135.16C.345.42.356.366.356.309V.076C.356.031.345.031.278.031V0l.113.003L.503 0v.031c-.052 0-.077 0-.078.03v.191c0 .086 0 .117-.031.153C.38.422.347.442.289.442.216.442.169.399.141.337v.105L0 .431V.4C.07.4.078.393.078.344z"/></symbol><use xlink:href="#o" transform="matrix(9.9626 0 0 -9.9626 431.07 289.206)"/><use xlink:href="#p" transform="matrix(9.9626 0 0 -9.9626 436.888 287.383)"/><use xlink:href="#q" transform="matrix(9.9626 0 0 -9.9626 441.92 287.383)"/><use xlink:href="#r" transform="matrix(9.9626 0 0 -9.9626 445.844 287.273)"/><use xlink:href="#s" transform="matrix(9.9626 0 0 -9.9626 448.475 287.383)"/><use xlink:href="#r" transform="matrix(9.9626 0 0 -9.9626 452.49 287.273)"/><use xlink:href="#p" transform="matrix(9.9626 0 0 -9.9626 455.21 287.383)"/><use xlink:href="#t" transform="matrix(9.9626 0 0 -9.9626 460.23 287.273)"/><symbol id="u"><path d="M.457.586C.461.6.461.602.461.609c0 .018-.014.027-.029.027A.043.043 0 0 1 .397.615 1.87 1.87 0 0 1 .363.481L.318.301C.314.286.271.216.205.216.154.216.143.26.143.297c0 .046.017.108.051.196.016.041.02.052.02.072a.08.08 0 0 1-.082.082C.037.647 0 .502 0 .493c0-.01.01-.01.012-.01.01 0 .011.002.016.018.027.094.067.124.101.124.008 0 .025 0 .025-.032 0-.025-.01-.051-.017-.07a.66.66 0 0 1-.058-.21c0-.089.063-.119.122-.119.039 0 .073.017.101.045C.289.187.277.138.237.085.211.051.173.022.127.022.113.022.068.025.051.064c.016 0 .029 0 .043.012.01.009.02.022.02.041 0 .031-.027.035-.037.035C.054.152.021.136.021.087.021.037.065 0 .127 0 .23 0 .333.091.361.204l.096.382z"/></symbol><use xlink:href="#u" transform="matrix(9.9626 0 0 -9.9626 311.37 143.548)"/><use xlink:href="#o" transform="matrix(9.9626 0 0 -9.9626 319.923 143.439)"/><use xlink:href="#p" transform="matrix(9.9626 0 0 -9.9626 325.741 141.616)"/><use xlink:href="#q" transform="matrix(9.9626 0 0 -9.9626 330.772 141.616)"/><use xlink:href="#r" transform="matrix(9.9626 0 0 -9.9626 334.697 141.506)"/><use xlink:href="#s" transform="matrix(9.9626 0 0 -9.9626 337.328 141.616)"/><use xlink:href="#r" transform="matrix(9.9626 0 0 -9.9626 341.343 141.506)"/><use xlink:href="#p" transform="matrix(9.9626 0 0 -9.9626 344.062 141.616)"/><use xlink:href="#t" transform="matrix(9.9626 0 0 -9.9626 349.083 141.506)"/></svg>