<?xml version="1.0" encoding="UTF-8" standalone="no"?>
<!DOCTYPE svg PUBLIC "-//W3C//DTD SVG 1.1//EN" "http://www.w3.org/Graphics/SVG/1.1/DTD/svg11.dtd">
<svg xmlns="http://www.w3.org/2000/svg" xmlns:xlink="http://www.w3.org/1999/xlink" version="1.1" width="612pt" height="792pt" viewBox="0 0 612 792">
<g enable-background="new">
<clipPath id="cp0">
<path transform="matrix(1,0,0,-1,146.164,454.127)" d="M 322.7988 0 L 322.7988 0 L 0 0 L 0 322.7988 L 322.7988 322.7988 Z "/>
</clipPath>
<g clip-path="url(#cp0)">
<path transform="matrix(1,0,0,-1,146.164,454.127)" d="M 212.6373 161.3994 C 212.6373 162.9558 211.37561 164.21749 209.81922 164.21749 C 208.26282 164.21749 207.00113 162.9558 207.00113 161.3994 C 207.00113 159.843 208.26282 158.58132 209.81922 158.58132 C 211.37561 158.58132 212.6373 159.843 212.6373 161.3994 Z M 209.81922 161.3994 "/>
<symbol id="font_1_8">
<path d="M .35400004 .078999999 C .342 .06800002 .305 .032999994 .305 .018999994 C .305 .009000003 .314 0 .324 0 C .333 0 .337 .006000042 .34400005 .016000033 C .36800004 .046000005 .39500005 .065 .41800005 .07800001 C .42800004 .08400005 .43500007 .08700001 .43500007 .09800005 C .43500007 .10699999 .42700006 .11200005 .42100007 .11700004 C .393 .13600004 .38600005 .16300005 .38300003 .17500001 C .38000006 .18300003 .37700004 .19500005 .36300005 .19500005 C .35700006 .19500005 .34500004 .19100005 .34500004 .176 C .34500004 .16700006 .351 .143 .37 .116 L .033999996 .116 C .017000005 .116 0 .116 0 .097 C 0 .078999999 .018000007 .078999999 .033999996 .078999999 L .35400004 .078999999 Z "/>
</symbol>
<symbol id="font_1_3">
<path d="M .31800003 .615 C .32700003 .652 .331 .65400007 .37 .65400007 L .50000008 .65400007 C .61300006 .65400007 .61300006 .558 .61300006 .549 C .61300006 .46800003 .53200009 .365 .4 .365 L .256 .365 L .31800003 .615 M .48700003 .35700003 C .5960001 .377 .69500008 .453 .69500008 .545 C .69500008 .623 .62600007 .683 .5130001 .683 L .192 .683 C .17300001 .683 .164 .683 .164 .66400006 C .164 .65400007 .17300001 .65400007 .18800003 .65400007 C .24900002 .65400007 .24900002 .646 .24900002 .63500007 C .24900002 .633 .24900002 .62700006 .245 .61200007 L .11000001 .074 C .101 .039 .099 .029000001 .029000007 .029000001 C .010000002 .029000001 0 .029000001 0 .011000001 C 0 0 .006000001 0 .026 0 L .36900003 0 C .5220001 0 .64000007 .116000007 .64000007 .21700001 C .64000007 .29900003 .5680001 .349 .48700003 .35700003 M .345 .029000001 L .21000001 .029000001 C .19600001 .029000001 .194 .029000001 .18800003 .030000002 C .17700002 .031000002 .176 .033 .176 .041 C .176 .048 .178 .054 .18 .063 L .25 .34500004 L .43800003 .34500004 C .55600008 .34500004 .55600008 .23500002 .55600008 .22700002 C .55600008 .13100001 .469 .029000001 .345 .029000001 Z "/>
</symbol>
<use xlink:href="#font_1_8" transform="matrix(11.9552,0,0,-11.9552,365.67488,277.8622)"/>
<use xlink:href="#font_1_3" transform="matrix(11.9552,0,0,-11.9552,362.20783,287.077)"/>
<path transform="matrix(1,0,0,-1,146.164,454.127)" d="M 212.6373 161.3994 C 212.6373 162.9558 211.37561 164.21749 209.81922 164.21749 C 208.26282 164.21749 207.00113 162.9558 207.00113 161.3994 C 207.00113 159.843 208.26282 158.58132 209.81922 158.58132 C 211.37561 158.58132 212.6373 159.843 212.6373 161.3994 Z M 209.81922 161.3994 "/>
<symbol id="font_2_1">
<path d="M .33400003 .63600006 C .34 .66 .343 .67 .36200003 .67300006 C .37100003 .674 .40300004 .674 .423 .674 C .49400003 .674 .605 .674 .605 .57500007 C .605 .54100009 .58900007 .47200004 .55 .43300004 C .524 .40700004 .47100003 .37500004 .381 .37500004 L .269 .37500004 L .33400003 .63600006 M .47800005 .36200003 C .579 .38400004 .698 .45400004 .698 .55500009 C .698 .64100006 .60800006 .70500007 .477 .70500007 L .192 .70500007 C .17200002 .70500007 .16300002 .70500007 .16300002 .68500009 C .16300002 .674 .17200002 .674 .19100002 .674 C .19300002 .674 .21200001 .674 .229 .67200008 C .24700001 .67 .256 .669 .256 .656 C .256 .65200009 .255 .64900007 .252 .637 L .11800001 .1 C .108 .061000006 .106 .053000004 .027000003 .053000004 C .009 .053000004 0 .053000004 0 .033000005 C 0 .022000002 .012000002 .022000002 .014000002 .022000002 C .042000005 .022000002 .11200001 .025000003 .14000002 .025000003 C .16800002 .025000003 .239 .022000002 .26700003 .022000002 C .275 .022000002 .287 .022000002 .287 .042000005 C .287 .053000004 .278 .053000004 .259 .053000004 C .222 .053000004 .194 .053000004 .194 .071 C .194 .07700001 .19600001 .082 .197 .088 L .263 .35300005 L .382 .35300005 C .473 .35300005 .491 .29700003 .491 .26200003 C .491 .24700001 .48300005 .216 .477 .193 C .47000004 .165 .46100004 .128 .46100004 .108 C .46100004 0 .58100005 0 .59400007 0 C .679 0 .71400007 .101 .71400007 .115 C .71400007 .127 .703 .127 .702 .127 C .693 .127 .69100007 .120000008 .689 .113000009 C .66400006 .039000006 .62100008 .022000002 .59800007 .022000002 C .565 .022000002 .558 .044000005 .558 .083000008 C .558 .11400001 .564 .165 .568 .19700001 C .57 .21100001 .572 .23 .572 .24400002 C .572 .32100005 .505 .35200004 .47800005 .36200003 Z "/>
</symbol>
<use xlink:href="#font_2_1" transform="matrix(9.9626,0,0,-9.9626,352.56849,306.2942)"/>
<path transform="matrix(1,0,0,-1,146.164,454.127)" d="M 261.05714 290.51893 C 261.05714 292.07533 259.79545 293.337 258.23905 293.337 C 256.68266 293.337 255.42096 292.07533 255.42096 290.51893 C 255.42096 288.96253 256.68266 287.70085 258.23905 287.70085 C 259.79545 287.70085 261.05714 288.96253 261.05714 290.51893 Z M 258.23905 290.51893 "/>
<symbol id="font_1_2">
<path d="M .136 .11100001 C .101 .052 .067 .032 .019000002 .029000001 C .008000001 .028 0 .028 0 .010000001 C 0 .004 .004999999 0 .012000002 0 C .030000002 0 .075 .002 .093 .002 C .122 .002 .15400002 0 .18200001 0 C .18800003 0 .20000002 0 .20000002 .019000002 C .20000002 .028 .192 .029000001 .18600002 .029000001 C .16300002 .031000002 .144 .039 .144 .063 C .144 .07700001 .15 .08800001 .16300002 .11000001 L .239 .23600002 L .494 .23600002 C .49500004 .22700002 .49500004 .21900001 .49600003 .21000001 C .49900005 .18400002 .51100006 .080000009 .51100006 .061000006 C .51100006 .031000002 .46 .029000001 .444 .029000001 C .433 .029000001 .42200003 .029000001 .42200003 .011000001 C .42200003 0 .43100003 0 .437 0 C .45400004 0 .474 .002 .49100004 .002 L .54800006 .002 C .609 .002 .65300008 0 .65400007 0 C .6610001 0 .67200008 0 .67200008 .019000002 C .67200008 .029000001 .66300007 .029000001 .64800009 .029000001 C .59300008 .029000001 .59200009 .038000004 .58900007 .068 L .52800008 .69200006 C .526 .712 .5220001 .71400007 .51100006 .71400007 C .50100007 .71400007 .49500004 .712 .48600004 .697 L .136 .11100001 M .256 .26500003 L .45700003 .601 L .49100004 .26500003 L .256 .26500003 Z "/>
</symbol>
<use xlink:href="#font_1_8" transform="matrix(11.9552,0,0,-11.9552,414.38389,148.74422)"/>
<use xlink:href="#font_1_2" transform="matrix(11.9552,0,0,-11.9552,410.45948,157.95899)"/>
<path transform="matrix(1,0,0,-1,146.164,454.127)" stroke-width=".3985" stroke-linecap="butt" stroke-dasharray="2.98883,2.98883" stroke-miterlimit="10" stroke-linejoin="miter" fill="none" stroke="#000000" d="M 209.81922 161.3994 C 209.81922 188.14125 188.14125 209.81922 161.3994 209.81922 C 134.65753 209.81922 112.97957 188.14125 112.97957 161.3994 C 112.97957 134.65753 134.65753 112.97957 161.3994 112.97957 C 188.14125 112.97957 209.81922 134.65753 209.81922 161.3994 Z M 161.3994 161.3994 "/>
<path transform="matrix(1,0,0,-1,146.164,454.127)" stroke-width=".3985" stroke-linecap="butt" stroke-miterlimit="10" stroke-linejoin="miter" fill="none" stroke="#000000" d="M 258.23905 290.51893 L 235.10489 228.82784 "/>
<path transform="matrix(-.3511,.93628,.93628,.3511,381.87214,223.69048)" d="M 4.21463 0 L .64343 1.34572 L 1.8178 0 L .64343 -1.34572 Z "/>
<path transform="matrix(-.3511,.93628,.93628,.3511,381.87214,223.69048)" stroke-width=".3985" stroke-linecap="butt" stroke-miterlimit="10" stroke-linejoin="miter" fill="none" stroke="#000000" d="M 4.21463 0 L .64343 1.34572 L 1.8178 0 L .64343 -1.34572 Z "/>
<symbol id="font_1_5">
<path d="M .43 .384 C .43 .447 .398 .451 .39000003 .451 C .366 .451 .344 .42700003 .344 .407 C .344 .395 .351 .388 .35500003 .384 C .365 .375 .391 .34800003 .391 .296 C .391 .254 .331 .020000002 .21100001 .020000002 C .15 .020000002 .13800001 .071 .13800001 .108 C .13800001 .158 .16100002 .22800002 .18800001 .3 C .20400001 .34100003 .20800002 .351 .20800002 .37100003 C .20800002 .41300003 .17800002 .451 .12900001 .451 C .037 .451 0 .306 0 .298 C 0 .294 .0040000008 .289 .011000002 .289 C .020000002 .289 .021 .293 .025 .307 C .049000004 .393 .088 .43100003 .12600002 .43100003 C .135 .43100003 .15200001 .43100003 .15200001 .398 C .15200001 .372 .14100002 .343 .12600002 .305 C .078 .17700002 .078 .14600002 .078 .122 C .078 .1 .081 .059000005 .11200001 .031000004 C .14800002 0 .19800002 0 .20700002 0 C .373 0 .43 .327 .43 .384 Z "/>
</symbol>
<use xlink:href="#font_1_5" transform="matrix(4.1974709,-11.193415,-11.193415,-4.1974709,388.15528,197.24579)"/>
<path transform="matrix(1,0,0,-1,146.164,454.127)" stroke-width=".3985" stroke-linecap="butt" stroke-miterlimit="10" stroke-linejoin="miter" fill="none" stroke="#000000" d="M 209.81922 161.3994 L 209.81922 206.75531 "/>
<path transform="matrix(0,-1,-1,-0,355.98323,249.0899)" d="M 4.21463 0 L .64343 1.34572 L 1.8178 0 L .64343 -1.34572 Z "/>
<path transform="matrix(0,-1,-1,-0,355.98323,249.0899)" stroke-width=".3985" stroke-linecap="butt" stroke-miterlimit="10" stroke-linejoin="miter" fill="none" stroke="#000000" d="M 4.21463 0 L .64343 1.34572 L 1.8178 0 L .64343 -1.34572 Z "/>
<path transform="matrix(1,0,0,-1,146.164,454.127)" d="M 194.80937 197.29334 L 194.80937 173.92528 L 209.61997 173.92528 L 209.61997 197.29334 Z M 209.61997 173.92528 " fill="#ffffff"/>
<symbol id="font_1_1">
<path d="M .582 .386 C .582 .41500003 .574 .45200003 .539 .45200003 C .519 .45200003 .49600003 .42700003 .49600003 .407 C .49600003 .398 .5 .39200003 .508 .38300003 C .523 .366 .542 .33900003 .542 .292 C .542 .256 .52 .19900002 .504 .16800002 C .47600005 .113000009 .43000005 .066 .37800003 .066 C .31500004 .066 .291 .106 .28000004 .16200002 C .291 .18800001 .314 .25300003 .314 .279 C .314 .29 .31000004 .299 .29700003 .299 C .29000003 .299 .282 .29500003 .277 .287 C .263 .26500003 .25000004 .18600002 .25100003 .165 C .23200003 .128 .17800002 .066 .114 .066 C .047000007 .066 .029000001 .125 .029000001 .18200001 C .029000001 .286 .094000007 .377 .112 .402 C .122 .417 .12900001 .42700003 .12900001 .42900003 C .12900001 .43600003 .12500002 .447 .116000007 .447 C .1 .447 .095000009 .43400003 .087000008 .42200003 C .036 .343 0 .23200003 0 .136 C 0 .074 .023 0 .098000008 0 C .18100001 0 .23300001 .071 .254 .109000008 C .26200003 .053000004 .29200004 0 .365 0 C .441 0 .48900006 .067 .525 .14800002 C .551 .20600002 .582 .331 .582 .386 Z "/>
</symbol>
<symbol id="font_1_4">
<path d="M .32100005 .63600006 C .33 .67300006 .33400003 .6750001 .37300004 .6750001 L .44500003 .6750001 C .531 .6750001 .595 .64900007 .595 .57100006 C .595 .52000007 .56900009 .37300004 .36800004 .37300004 L .25500003 .37300004 L .32100005 .63600006 M .46000005 .361 C .58400008 .388 .68100008 .46800003 .68100008 .5540001 C .68100008 .632 .60200008 .70400008 .46300007 .70400008 L .192 .70400008 C .172 .70400008 .163 .70400008 .163 .68500009 C .163 .6750001 .17 .6750001 .18900001 .6750001 C .249 .6750001 .249 .66700008 .249 .6560001 C .249 .65400007 .249 .64800009 .24500002 .6330001 L .11 .095 C .100999999 .060000004 .09900001 .050000006 .030000005 .050000006 C .0069999995 .050000006 0 .050000006 0 .031000004 C 0 .021000002 .011 .021000002 .014000002 .021000002 C .032 .021000002 .053 .023000002 .072 .023000002 L .19000001 .023000002 C .20800002 .023000002 .22900002 .021000002 .247 .021000002 C .25500003 .021000002 .26600004 .021000002 .26600004 .040000004 C .26600004 .050000006 .25700004 .050000006 .242 .050000006 C .18100001 .050000006 .18100001 .058000003 .18100001 .068 C .18100001 .069000009 .18100001 .076000008 .183 .08400001 L .25000004 .35300002 L .37000004 .35300002 C .46500004 .35300002 .48300005 .293 .48300005 .26000003 C .48300005 .245 .47300006 .206 .46600003 .18 C .45500005 .134 .45200003 .12300001 .45200003 .104 C .45200003 .033 .51000007 0 .577 0 C .65800008 0 .693 .09900001 .693 .113000009 C .693 .120000008 .688 .12300001 .68200007 .12300001 C .674 .12300001 .67200008 .117 .67 .10900001 C .646 .038000004 .605 .020000002 .58000007 .020000002 C .55500009 .020000002 .53900006 .031000004 .53900006 .076000008 C .53900006 .10000001 .55100008 .191 .55200007 .19600001 C .55700007 .23300001 .55700007 .237 .55700007 .245 C .55700007 .31800003 .49800004 .349 .46000005 .361 Z "/>
</symbol>
<use xlink:href="#font_1_1" transform="matrix(0,-11.9552,-11.9552,-0,352.58055,276.74058)"/>
<use xlink:href="#font_1_4" transform="matrix(0,-11.9552,-11.9552,-0,352.71208,268.5991)"/>
<path transform="matrix(1,0,0,-1,146.164,454.127)" stroke-width=".3985" stroke-linecap="butt" stroke-dasharray="2.98883,2.98883" stroke-miterlimit="10" stroke-linejoin="miter" fill="none" stroke="#000000" d="M 195.6322 195.6322 L 161.3994 161.3994 "/>
<use xlink:href="#font_1_4" transform="matrix(8.453522,-8.453522,-8.453522,-8.453522,319.57884,276.0902)"/>
</g>
<path transform="matrix(1,0,0,-1,146.164,454.127)" stroke-width=".19925" stroke-linecap="butt" stroke-miterlimit="10" stroke-linejoin="miter" fill="none" stroke="#929292" d="M 5.37996 159.98197 L 5.37996 162.81684 M 10.75993 159.98197 L 10.75993 162.81684 M 16.13992 159.98197 L 16.13992 162.81684 M 21.5199 159.98197 L 21.5199 162.81684 M 26.89986 159.98197 L 26.89986 162.81684 M 37.65984 159.98197 L 37.65984 162.81684 M 43.03983 159.98197 L 43.03983 162.81684 M 48.4198 159.98197 L 48.4198 162.81684 M 53.79977 159.98197 L 53.79977 162.81684 M 59.17975 159.98197 L 59.17975 162.81684 M 69.93971 159.98197 L 69.93971 162.81684 M 75.3197 159.98197 L 75.3197 162.81684 M 80.69968 159.98197 L 80.69968 162.81684 M 86.07967 159.98197 L 86.07967 162.81684 M 91.45963 159.98197 L 91.45963 162.81684 M 102.2196 159.98197 L 102.2196 162.81684 M 107.59958 159.98197 L 107.59958 162.81684 M 112.97955 159.98197 L 112.97955 162.81684 M 118.35954 159.98197 L 118.35954 162.81684 M 123.7395 159.98197 L 123.7395 162.81684 M 134.49948 159.98197 L 134.49948 162.81684 M 139.87946 159.98197 L 139.87946 162.81684 M 145.25945 159.98197 L 145.25945 162.81684 M 150.63942 159.98197 L 150.63942 162.81684 M 156.0194 159.98197 L 156.0194 162.81684 M 166.77936 159.98197 L 166.77936 162.81684 M 172.15935 159.98197 L 172.15935 162.81684 M 177.53932 159.98197 L 177.53932 162.81684 M 182.9193 159.98197 L 182.9193 162.81684 M 188.29927 159.98197 L 188.29927 162.81684 M 199.05925 159.98197 L 199.05925 162.81684 M 204.43923 159.98197 L 204.43923 162.81684 M 209.8192 159.98197 L 209.8192 162.81684 M 215.19919 159.98197 L 215.19919 162.81684 M 220.57915 159.98197 L 220.57915 162.81684 M 231.33913 159.98197 L 231.33913 162.81684 M 236.7191 159.98197 L 236.7191 162.81684 M 242.09909 159.98197 L 242.09909 162.81684 M 247.47907 159.98197 L 247.47907 162.81684 M 252.85903 159.98197 L 252.85903 162.81684 M 263.619 159.98197 L 263.619 162.81684 M 268.999 159.98197 L 268.999 162.81684 M 274.37898 159.98197 L 274.37898 162.81684 M 279.75895 159.98197 L 279.75895 162.81684 M 285.13893 159.98197 L 285.13893 162.81684 M 295.89888 159.98197 L 295.89888 162.81684 M 301.27888 159.98197 L 301.27888 162.81684 M 306.65885 159.98197 L 306.65885 162.81684 M 312.03883 159.98197 L 312.03883 162.81684 M 317.4188 159.98197 L 317.4188 162.81684 "/>
<path transform="matrix(1,0,0,-1,146.164,454.127)" stroke-width=".19925" stroke-linecap="butt" stroke-miterlimit="10" stroke-linejoin="miter" fill="none" stroke="#929292" d="M 0 159.27346 L 0 163.52533 M 32.27988 159.27346 L 32.27988 163.52533 M 64.55975 159.27346 L 64.55975 163.52533 M 96.83963 159.27346 L 96.83963 163.52533 M 129.11952 159.27346 L 129.11952 163.52533 M 193.67928 159.27346 L 193.67928 163.52533 M 225.95915 159.27346 L 225.95915 163.52533 M 258.23905 159.27346 L 258.23905 163.52533 M 290.51893 159.27346 L 290.51893 163.52533 M 322.7988 159.27346 L 322.7988 163.52533 "/>
<path transform="matrix(1,0,0,-1,146.164,454.127)" stroke-width=".19925" stroke-linecap="butt" stroke-miterlimit="10" stroke-linejoin="miter" fill="none" stroke="#929292" d="M 159.98197 5.37996 L 162.81684 5.37996 M 159.98197 10.75993 L 162.81684 10.75993 M 159.98197 16.13992 L 162.81684 16.13992 M 159.98197 21.5199 L 162.81684 21.5199 M 159.98197 26.89986 L 162.81684 26.89986 M 159.98197 37.65984 L 162.81684 37.65984 M 159.98197 43.03983 L 162.81684 43.03983 M 159.98197 48.4198 L 162.81684 48.4198 M 159.98197 53.79977 L 162.81684 53.79977 M 159.98197 59.17975 L 162.81684 59.17975 M 159.98197 69.93971 L 162.81684 69.93971 M 159.98197 75.3197 L 162.81684 75.3197 M 159.98197 80.69968 L 162.81684 80.69968 M 159.98197 86.07967 L 162.81684 86.07967 M 159.98197 91.45963 L 162.81684 91.45963 M 159.98197 102.2196 L 162.81684 102.2196 M 159.98197 107.59958 L 162.81684 107.59958 M 159.98197 112.97955 L 162.81684 112.97955 M 159.98197 118.35954 L 162.81684 118.35954 M 159.98197 123.7395 L 162.81684 123.7395 M 159.98197 134.49948 L 162.81684 134.49948 M 159.98197 139.87946 L 162.81684 139.87946 M 159.98197 145.25945 L 162.81684 145.25945 M 159.98197 150.63942 L 162.81684 150.63942 M 159.98197 156.0194 L 162.81684 156.0194 M 159.98197 166.77936 L 162.81684 166.77936 M 159.98197 172.15935 L 162.81684 172.15935 M 159.98197 177.53932 L 162.81684 177.53932 M 159.98197 182.9193 L 162.81684 182.9193 M 159.98197 188.29927 L 162.81684 188.29927 M 159.98197 199.05925 L 162.81684 199.05925 M 159.98197 204.43923 L 162.81684 204.43923 M 159.98197 209.8192 L 162.81684 209.8192 M 159.98197 215.19919 L 162.81684 215.19919 M 159.98197 220.57915 L 162.81684 220.57915 M 159.98197 231.33913 L 162.81684 231.33913 M 159.98197 236.7191 L 162.81684 236.7191 M 159.98197 242.09909 L 162.81684 242.09909 M 159.98197 247.47907 L 162.81684 247.47907 M 159.98197 252.85903 L 162.81684 252.85903 M 159.98197 263.619 L 162.81684 263.619 M 159.98197 268.999 L 162.81684 268.999 M 159.98197 274.37898 L 162.81684 274.37898 M 159.98197 279.75895 L 162.81684 279.75895 M 159.98197 285.13893 L 162.81684 285.13893 M 159.98197 295.89888 L 162.81684 295.89888 M 159.98197 301.27888 L 162.81684 301.27888 M 159.98197 306.65885 L 162.81684 306.65885 M 159.98197 312.03883 L 162.81684 312.03883 M 159.98197 317.4188 L 162.81684 317.4188 "/>
<path transform="matrix(1,0,0,-1,146.164,454.127)" stroke-width=".19925" stroke-linecap="butt" stroke-miterlimit="10" stroke-linejoin="miter" fill="none" stroke="#929292" d="M 159.27346 0 L 163.52533 0 M 159.27346 32.27988 L 163.52533 32.27988 M 159.27346 64.55975 L 163.52533 64.55975 M 159.27346 96.83963 L 163.52533 96.83963 M 159.27346 129.11952 L 163.52533 129.11952 M 159.27346 193.67928 L 163.52533 193.67928 M 159.27346 225.95915 L 163.52533 225.95915 M 159.27346 258.23905 L 163.52533 258.23905 M 159.27346 290.51893 L 163.52533 290.51893 M 159.27346 322.7988 L 163.52533 322.7988 "/>
<path transform="matrix(1,0,0,-1,146.164,454.127)" stroke-width=".3985" stroke-linecap="butt" stroke-miterlimit="10" stroke-linejoin="miter" fill="none" stroke="#000000" d="M 0 161.3994 L 320.80628 161.3994 "/>
<path transform="matrix(1,0,0,-1,466.97029,292.7276)" d="M 1.99252 0 L -1.19551 1.59401 L 0 0 L -1.19551 -1.59401 "/>
<path transform="matrix(1,0,0,-1,146.164,454.127)" stroke-width=".3985" stroke-linecap="butt" stroke-miterlimit="10" stroke-linejoin="miter" fill="none" stroke="#000000" d="M 161.3994 0 L 161.3994 320.80628 "/>
<path transform="matrix(0,-1,-1,-0,307.56343,133.32074)" d="M 1.99252 0 L -1.19551 1.59401 L 0 0 L -1.19551 -1.59401 "/>
<symbol id="font_3_1">
<path d="M .57600006 0 C .59300008 0 .611 0 .611 .019999996 C .611 .040000008 .59300008 .040000008 .57600006 .040000008 L .035000005 .040000008 C .018 .040000008 0 .040000008 0 .019999996 C 0 0 .018 0 .035000005 0 L .57600006 0 Z "/>
</symbol>
<use xlink:href="#font_3_1" transform="matrix(9.9626,0,0,-9.9626,140.62589,302.50459)"/>
<symbol id="font_4_5">
<path d="M .39900003 .223 C .39900003 .34200005 .317 .44200004 .209 .44200004 C .16100002 .44200004 .118000019 .42600004 .082 .39100004 L .082 .586 C .10200001 .58000007 .135 .573 .16700001 .573 C .29 .573 .36 .66400006 .36 .67700007 C .36 .683 .357 .688 .35 .688 C .349 .688 .347 .688 .342 .68500009 C .322 .67600008 .273 .656 .20600002 .656 C .16600001 .656 .120000008 .66300007 .073 .6840001 C .065 .68700006 .06300001 .68700006 .061000009 .68700006 C .051000004 .68700006 .051000004 .679 .051000004 .66300007 L .051000004 .36700005 C .051000004 .34900005 .051000004 .34100003 .065 .34100003 C .07200001 .34100003 .074 .34400005 .07800001 .35000003 C .08900002 .36600004 .12600002 .42000006 .207 .42000006 C .259 .42000006 .284 .37400005 .292 .35600005 C .308 .31900005 .31 .28000004 .31 .23 C .31 .19500001 .31 .135 .286 .093 C .262 .054000006 .22500001 .028 .17900002 .028 C .106000009 .028 .049000008 .08100001 .032 .14000002 C .035 .13900002 .038000008 .13800001 .049000008 .13800001 C .082 .13800001 .09900001 .163 .09900001 .187 C .09900001 .21100001 .082 .23600002 .049000008 .23600002 C .035 .23600002 0 .22900002 0 .18300002 C 0 .097 .069000009 0 .18100001 0 C .297 0 .39900003 .096 .39900003 .223 Z "/>
</symbol>
<use xlink:href="#font_4_5" transform="matrix(9.9626,0,0,-9.9626,148.04611,305.01518)"/>
<use xlink:href="#font_3_1" transform="matrix(9.9626,0,0,-9.9626,172.90489,302.50459)"/>
<symbol id="font_4_4">
<path d="M .266 .165 L .266 .078 C .266 .042000005 .26400004 .031000002 .19000001 .031000002 L .16900002 .031000002 L .16900002 0 C .21000001 .003 .26200003 .003 .30400003 .003 C .34600003 .003 .39900003 .003 .44000004 0 L .44000004 .031000002 L .41900004 .031000002 C .34500004 .031000002 .34300003 .042000005 .34300003 .078 L .34300003 .165 L .44300003 .165 L .44300003 .19600001 L .34300003 .19600001 L .34300003 .651 C .34300003 .671 .34300003 .67700007 .32700003 .67700007 C .31800003 .67700007 .31500004 .67700007 .307 .665 L 0 .19600001 L 0 .165 L .266 .165 M .272 .19600001 L .028 .19600001 L .272 .569 L .272 .19600001 Z "/>
</symbol>
<use xlink:href="#font_4_4" transform="matrix(9.9626,0,0,-9.9626,180.10594,304.796)"/>
<use xlink:href="#font_3_1" transform="matrix(9.9626,0,0,-9.9626,205.18489,302.50459)"/>
<symbol id="font_4_3">
<path d="M .24800003 .37400005 C .33 .40100003 .388 .47100006 .388 .55 C .388 .632 .3 .688 .204 .688 C .10300001 .688 .027000003 .628 .027000003 .55200007 C .027000003 .519 .049000004 .5 .078 .5 C .109000008 .5 .12900001 .522 .12900001 .55100008 C .12900001 .6010001 .082 .6010001 .067 .6010001 C .098 .65000006 .164 .66300007 .20000002 .66300007 C .24100003 .66300007 .29600004 .64100006 .29600004 .55100008 C .29600004 .53900006 .29400004 .48100005 .268 .43700005 C .238 .38900004 .204 .38600005 .17900002 .38500003 C .171 .38400004 .14700002 .38200004 .14000002 .38200004 C .132 .38100005 .125 .38000003 .125 .37000004 C .125 .35900004 .132 .35900004 .14900002 .35900004 L .19300002 .35900004 C .275 .35900004 .312 .29100005 .312 .193 C .312 .057000005 .24300003 .028 .199 .028 C .15600002 .028 .081 .045 .046000005 .104 C .081 .09900001 .11200001 .12100001 .11200001 .15900001 C .11200001 .19500001 .085 .215 .056 .215 C .031999999 .215 0 .201 0 .157 C 0 .06600001 .093 0 .20200002 0 C .32400004 0 .41500003 .091000009 .41500003 .193 C .41500003 .27500005 .35200004 .35300005 .24800003 .37400005 Z "/>
</symbol>
<use xlink:href="#font_4_3" transform="matrix(9.9626,0,0,-9.9626,212.52542,305.01518)"/>
<use xlink:href="#font_3_1" transform="matrix(9.9626,0,0,-9.9626,237.46389,302.50459)"/>
<symbol id="font_4_2">
<path d="M .07700001 .07700001 L .18300002 .18 C .33900003 .31800003 .39900003 .372 .39900003 .47200004 C .39900003 .586 .30900003 .666 .18700002 .666 C .074 .666 0 .574 0 .485 C 0 .42900003 .05 .42900003 .053000008 .42900003 C .07000001 .42900003 .105000007 .441 .105000007 .48200003 C .105000007 .508 .08700001 .53400006 .052000006 .53400006 C .044000005 .53400006 .042000008 .53400006 .039 .53300008 C .062000004 .59800007 .11600001 .63500007 .17400001 .63500007 C .26500003 .63500007 .308 .554 .308 .47200004 C .308 .39200003 .25800003 .31300003 .20300003 .25100003 L .011000004 .037 C 0 .026 0 .024 0 0 L .37100003 0 L .39900003 .17400001 L .374 .17400001 C .36900003 .14400001 .36200003 .1 .352 .085 C .345 .07700001 .279 .07700001 .257 .07700001 L .07700001 .07700001 Z "/>
</symbol>
<use xlink:href="#font_4_2" transform="matrix(9.9626,0,0,-9.9626,244.88411,304.796)"/>
<use xlink:href="#font_3_1" transform="matrix(9.9626,0,0,-9.9626,269.7439,302.50459)"/>
<symbol id="font_4_1">
<path d="M .205 .64000007 C .205 .66400006 .205 .666 .18200003 .666 C .120000008 .60200008 .032000007 .60200008 0 .60200008 L 0 .57100006 C .020000004 .57100006 .07900001 .57100006 .13100001 .597 L .13100001 .079 C .13100001 .043 .128 .031000002 .038000004 .031000002 L .0060000049 .031000002 L .0060000049 0 C .04100001 .003 .128 .003 .168 .003 C .20800002 .003 .29500003 .003 .33000005 0 L .33000005 .031000002 L .29800005 .031000002 C .20800002 .031000002 .205 .042000005 .205 .079 L .205 .64000007 Z "/>
</symbol>
<use xlink:href="#font_4_1" transform="matrix(9.9626,0,0,-9.9626,277.55165,304.796)"/>
<use xlink:href="#font_4_1" transform="matrix(9.9626,0,0,-9.9626,338.23667,304.796)"/>
<use xlink:href="#font_4_2" transform="matrix(9.9626,0,0,-9.9626,370.12715,304.796)"/>
<use xlink:href="#font_4_3" transform="matrix(9.9626,0,0,-9.9626,402.32743,305.01518)"/>
<use xlink:href="#font_4_4" transform="matrix(9.9626,0,0,-9.9626,434.46696,304.796)"/>
<use xlink:href="#font_4_5" transform="matrix(9.9626,0,0,-9.9626,466.96614,305.01518)"/>
<use xlink:href="#font_3_1" transform="matrix(9.9626,0,0,-9.9626,290.0119,454.63059)"/>
<use xlink:href="#font_4_5" transform="matrix(9.9626,0,0,-9.9626,297.43214,457.14118)"/>
<use xlink:href="#font_3_1" transform="matrix(9.9626,0,0,-9.9626,290.0119,422.3516)"/>
<use xlink:href="#font_4_4" transform="matrix(9.9626,0,0,-9.9626,297.21296,424.643)"/>
<use xlink:href="#font_3_1" transform="matrix(9.9626,0,0,-9.9626,290.0119,390.0716)"/>
<use xlink:href="#font_4_3" transform="matrix(9.9626,0,0,-9.9626,297.35243,392.58219)"/>
<use xlink:href="#font_3_1" transform="matrix(9.9626,0,0,-9.9626,290.0119,357.7926)"/>
<use xlink:href="#font_4_2" transform="matrix(9.9626,0,0,-9.9626,297.43214,360.084)"/>
<use xlink:href="#font_3_1" transform="matrix(9.9626,0,0,-9.9626,290.0119,325.51258)"/>
<use xlink:href="#font_4_1" transform="matrix(9.9626,0,0,-9.9626,297.82066,327.804)"/>
<use xlink:href="#font_4_1" transform="matrix(9.9626,0,0,-9.9626,297.82069,263.661)"/>
<use xlink:href="#font_4_2" transform="matrix(9.9626,0,0,-9.9626,297.43217,231.38098)"/>
<use xlink:href="#font_4_3" transform="matrix(9.9626,0,0,-9.9626,297.35246,199.32117)"/>
<use xlink:href="#font_4_4" transform="matrix(9.9626,0,0,-9.9626,297.21299,166.82202)"/>
<use xlink:href="#font_4_5" transform="matrix(9.9626,0,0,-9.9626,297.43217,134.7622)"/>
<symbol id="font_1_6">
<path d="M .44600005 .418 C .41400004 .412 .402 .388 .402 .36900003 C .402 .345 .42100004 .337 .43500004 .337 C .46500004 .337 .486 .363 .486 .39000003 C .486 .432 .43800003 .451 .39600004 .451 C .335 .451 .30100004 .391 .29200004 .372 C .26900003 .447 .20700002 .451 .18900001 .451 C .087 .451 .033000005 .32 .033000005 .298 C .033000005 .294 .037000006 .289 .044000005 .289 C .052000006 .289 .054 .29500003 .056000007 .299 C .09 .41 .157 .43100003 .18600002 .43100003 C .231 .43100003 .24000001 .389 .24000001 .365 C .24000001 .343 .23400003 .32 .222 .272 L .18800001 .135 C .17300001 .075 .14400001 .020000002 .091000009 .020000002 C .08600001 .020000002 .061 .020000002 .040000004 .033000005 C .076000008 .040000004 .08400001 .07 .08400001 .082 C .08400001 .102000009 .069000009 .114 .05 .114 C .026 .114 0 .093 0 .061000006 C 0 .019000002 .047000003 0 .09 0 C .13800001 0 .172 .038000004 .19300002 .079 C .20900002 .020000002 .259 0 .296 0 C .39800004 0 .45200003 .13100001 .45200003 .15300001 C .45200003 .158 .448 .16200002 .44200004 .16200002 C .43300004 .16200002 .432 .157 .42900003 .14900002 C .402 .061000006 .344 .020000002 .29900003 .020000002 C .26400004 .020000002 .245 .046000005 .245 .087000008 C .245 .109000008 .24900002 .125 .26500003 .19100002 L .3 .327 C .31500004 .387 .349 .43100003 .395 .43100003 C .397 .43100003 .425 .43100003 .44600005 .418 Z "/>
</symbol>
<use xlink:href="#font_1_6" transform="matrix(14.3462,0,0,-14.3462,401.0847,286.56446)"/>
<symbol id="font_3_2">
<path d="M .22400002 .43 C .22900002 .44200004 .23300003 .45100004 .23300003 .46100004 C .23300003 .49 .20700002 .514 .17600002 .514 C .148 .514 .13000001 .495 .12300001 .46899999 L .003999999 .032000007 C .003999999 .030000002 0 .019000002 0 .018 C 0 .0069999995 .026000003 0 .034 0 C .040000008 0 .041 .0029999987 .047000007 .016000003 L .22400002 .43 Z "/>
</symbol>
<use xlink:href="#font_3_2" transform="matrix(9.9626,0,0,-9.9626,408.9549,280.7667)"/>
<symbol id="font_5_4">
<path d="M .21700001 .029 C .15300001 .029 .14100002 .029 .14100002 .074 L .14100002 .24800001 C .15900001 .223 .20000002 .184 .26400004 .184 C .379 .184 .48000003 .28100003 .48000003 .41000004 C .48000003 .53700008 .38600005 .635 .277 .635 C .18900001 .635 .142 .572 .13900002 .568 L .13900002 .635 L 0 .624 L 0 .595 C .07000001 .595 .076000008 .58800008 .076000008 .544 L .076000008 .074 C .076000008 .029 .065 .029 0 .029 L 0 0 C .026 .002000004 .08 .002000004 .10800001 .002000004 C .13700001 .002000004 .19100002 .002000004 .21700001 0 L .21700001 .029 M .14100002 .513 C .14100002 .53200009 .14100002 .533 .15200001 .549 C .18200001 .594 .231 .61300006 .26900003 .61300006 C .344 .61300006 .404 .522 .404 .41000004 C .404 .291 .33600004 .20400001 .259 .20400001 C .22800002 .20400001 .19900002 .21700001 .17900002 .236 C .15600002 .259 .14100002 .279 .14100002 .307 L .14100002 .513 Z "/>
</symbol>
<symbol id="font_5_3">
<path d="M .42900003 .22400002 C .42900003 .35300002 .33100004 .456 .215 .456 C .095 .456 0 .35 0 .22400002 C 0 .096 .10000001 0 .21400002 0 C .33200003 0 .42900003 .098000008 .42900003 .22400002 M .215 .022 C .178 .022 .133 .038000004 .104 .087000008 C .07700001 .13200002 .076000008 .19100002 .076000008 .23300001 C .076000008 .271 .076000008 .33200003 .10700001 .377 C .135 .42000003 .179 .43600003 .21400002 .43600003 C .25300003 .43600003 .29500003 .418 .32200004 .379 C .35300002 .333 .35300002 .27 .35300002 .23300001 C .35300002 .19800002 .35300002 .136 .32700003 .089 C .29900003 .041 .25300003 .022 .215 .022 Z "/>
</symbol>
<symbol id="font_5_5">
<path d="M .29500003 .433 C .29500003 .451 .29500003 .456 .28500004 .456 C .277 .456 .25800003 .43400003 .25100003 .425 C .22000003 .45000003 .18900001 .456 .157 .456 C .036000007 .456 0 .39000003 0 .335 C 0 .324 0 .289 .038000004 .254 C .07000001 .22600001 .10400001 .21900001 .15 .21000001 C .20500002 .19900002 .21800003 .19600001 .24300003 .17600002 C .261 .16100002 .27400003 .13900002 .27400003 .111 C .27400003 .068 .24900002 .020000002 .16100002 .020000002 C .095000009 .020000002 .047000007 .058000003 .025000003 .158 C .021000002 .17600002 .021000002 .17700002 .020000004 .17800002 C .018000003 .18200001 .014000002 .18200001 .011000004 .18200001 C 0 .18200001 0 .17700002 0 .15900001 L 0 .023000002 C 0 .0050000005 0 0 .010000002 0 C .015000001 0 .016000003 .0010000002 .033 .022 C .038000004 .029000003 .038000004 .031000004 .053000004 .047000003 C .091000009 0 .14500001 0 .162 0 C .26700003 0 .31900005 .058000003 .31900005 .13700001 C .31900005 .19100002 .286 .22300002 .277 .23200003 C .24100003 .263 .21400002 .269 .148 .28100003 C .11800001 .287 .045 .301 .045 .361 C .045 .39200003 .06600001 .43800003 .15600002 .43800003 C .26500003 .43800003 .27100004 .345 .27300004 .314 C .27400003 .306 .28100003 .306 .284 .306 C .29500003 .306 .29500003 .31100003 .29500003 .329 L .29500003 .433 Z "/>
</symbol>
<symbol id="font_5_1">
<path d="M .141 .61600008 C .141 .642 .12000001 .665 .092 .665 C .06600001 .665 .044000009 .64400008 .044000009 .61700007 C .044000009 .587 .068 .568 .092 .568 C .123 .568 .141 .59400007 .141 .61600008 M .0030000024 .43 L .0030000024 .40100003 C .067 .40100003 .076000008 .395 .076000008 .34600003 L .076000008 .074 C .076000008 .029000001 .065000008 .029000001 0 .029000001 L 0 0 C .028000005 .002 .076000008 .002 .10500001 .002 C .116000007 .002 .17400003 .002 .208 0 L .208 .029000001 C .143 .029000001 .139 .034 .139 .07300001 L .139 .441 L .0030000024 .43 Z "/>
</symbol>
<symbol id="font_5_6">
<path d="M .15 .412 L .291 .412 L .291 .441 L .15 .441 L .15 .625 L .128 .625 C .127 .531 .091000009 .435 0 .432 L 0 .412 L .08500001 .412 L .08500001 .134 C .08500001 .023000002 .159 0 .212 0 C .275 0 .308 .062000004 .308 .134 L .308 .19100002 L .286 .19100002 L .286 .136 C .286 .064 .257 .022 .21800001 .022 C .15 .022 .15 .115 .15 .13200002 L .15 .412 Z "/>
</symbol>
<symbol id="font_5_2">
<path d="M .41300003 .24300002 C .41300003 .33600004 .41300003 .36400003 .39000003 .39600004 C .361 .43500004 .314 .441 .28 .441 C .183 .441 .145 .358 .13700001 .33800004 L .136 .33800004 L .136 .441 L 0 .43 L 0 .40100003 C .068 .40100003 .076000008 .39400003 .076000008 .34500004 L .076000008 .074 C .076000008 .029000001 .065 .029000001 0 .029000001 L 0 0 C .026 .002 .08 .002 .107999999 .002 C .13700001 .002 .191 .002 .21700001 0 L .21700001 .029000001 C .153 .029000001 .141 .029000001 .141 .074 L .141 .26000003 C .141 .365 .21000001 .42100004 .272 .42100004 C .33400003 .42100004 .34800003 .37 .34800003 .30900003 L .34800003 .074 C .34800003 .029000001 .337 .029000001 .272 .029000001 L .272 0 C .298 .002 .352 .002 .38000003 .002 C .409 .002 .46300004 .002 .48900003 0 L .48900003 .029000001 C .439 .029000001 .414 .029000001 .41300003 .059000005 L .41300003 .24300002 Z "/>
</symbol>
<use xlink:href="#font_5_4" transform="matrix(14.3462,0,0,-14.3462,416.9877,289.20417)"/>
<use xlink:href="#font_5_3" transform="matrix(14.3462,0,0,-14.3462,425.20808,286.56446)"/>
<use xlink:href="#font_5_5" transform="matrix(14.3462,0,0,-14.3462,432.28074,286.56446)"/>
<use xlink:href="#font_5_1" transform="matrix(14.3462,0,0,-14.3462,437.81837,286.421)"/>
<use xlink:href="#font_5_6" transform="matrix(14.3462,0,0,-14.3462,441.50535,286.56446)"/>
<use xlink:href="#font_5_1" transform="matrix(14.3462,0,0,-14.3462,447.18644,286.421)"/>
<use xlink:href="#font_5_3" transform="matrix(14.3462,0,0,-14.3462,451.04557,286.56446)"/>
<use xlink:href="#font_5_2" transform="matrix(14.3462,0,0,-14.3462,458.10389,286.421)"/>
<symbol id="font_1_7">
<path d="M .23600002 .09200001 C .20900002 .054000006 .17000002 .019999996 .121 .019999996 C .109000008 .019999996 .061000006 .022 .046000005 .068 C .049000004 .067 .053999999 .067 .056 .067 C .086 .067 .106 .093 .106 .116000007 C .106 .139 .087000008 .14700002 .072000008 .14700002 C .056 .14700002 .021 .135 .021 .086 C .021 .034999998 .064 0 .121 0 C .22100002 0 .322 .09200001 .35 .20300001 L .448 .59300008 C .449 .59800007 .451 .60400006 .451 .61 C .451 .62500008 .439 .63500007 .42400003 .63500007 C .41500003 .63500007 .39400003 .63100007 .386 .601 L .312 .307 C .307 .289 .307 .287 .299 .27600003 C .279 .24800001 .246 .21400002 .19800002 .21400002 C .14200002 .21400002 .13700001 .26900003 .13700001 .296 C .13700001 .35300002 .16400002 .43 .19100002 .50200006 C .20200002 .531 .20800002 .545 .20800002 .56500008 C .20800002 .60700008 .17800002 .64500007 .12900001 .64500007 C .037 .64500007 0 .5 0 .49200005 C 0 .48800005 .0040000008 .48300005 .011000002 .48300005 C .020000002 .48300005 .021 .48700006 .025 .50100007 C .049000004 .58500006 .087000008 .62500008 .12600002 .62500008 C .135 .62500008 .15200001 .62500008 .15200001 .592 C .15200001 .56600007 .14100002 .537 .12600002 .499 C .077 .36800004 .077 .33500005 .077 .31100003 C .077 .216 .14500001 .194 .19500003 .194 C .22400002 .194 .26 .20300001 .29500003 .24000001 L .296 .23900001 C .28100003 .18 .271 .141 .23600002 .09200001 Z "/>
</symbol>
<use xlink:href="#font_1_7" transform="matrix(14.3462,0,0,-14.3462,311.46836,148.51964)"/>
<use xlink:href="#font_3_2" transform="matrix(9.9626,0,0,-9.9626,318.73393,139.9387)"/>
<use xlink:href="#font_5_4" transform="matrix(14.3462,0,0,-14.3462,326.76673,148.37618)"/>
<use xlink:href="#font_5_3" transform="matrix(14.3462,0,0,-14.3462,334.9871,145.73648)"/>
<use xlink:href="#font_5_5" transform="matrix(14.3462,0,0,-14.3462,342.05976,145.73648)"/>
<use xlink:href="#font_5_1" transform="matrix(14.3462,0,0,-14.3462,347.59739,145.59302)"/>
<use xlink:href="#font_5_6" transform="matrix(14.3462,0,0,-14.3462,351.28437,145.73648)"/>
<use xlink:href="#font_5_1" transform="matrix(14.3462,0,0,-14.3462,356.96546,145.59302)"/>
<use xlink:href="#font_5_3" transform="matrix(14.3462,0,0,-14.3462,360.8246,145.73648)"/>
<use xlink:href="#font_5_2" transform="matrix(14.3462,0,0,-14.3462,367.8829,145.59302)"/>
</g>
</svg>
